<svg width="16" height="16" viewBox="0 0 16 16" fill="none" xmlns="http://www.w3.org/2000/svg">
<path fill-rule="evenodd" clip-rule="evenodd" d="M3.52876 3.52876C3.78911 3.26841 4.21122 3.26841 4.47157 3.52876L12.4716 11.5288C12.7319 11.7891 12.7319 12.2112 12.4716 12.4716C12.2112 12.7319 11.7891 12.7319 11.5288 12.4716L3.52876 4.47157C3.26841 4.21122 3.26841 3.78911 3.52876 3.52876Z" fill="#C5CBD0"/>
<path fill-rule="evenodd" clip-rule="evenodd" d="M12.4717 3.52876C12.2114 3.26841 11.7893 3.26841 11.5289 3.52876L3.52892 11.5288C3.26857 11.7891 3.26857 12.2112 3.52892 12.4716C3.78927 12.7319 4.21138 12.7319 4.47173 12.4716L12.4717 4.47157C12.7321 4.21122 12.7321 3.78911 12.4717 3.52876Z" fill="#C5CBD0"/>
</svg>
