<svg width="18" height="18" viewBox="0 0 18 18" fill="none" xmlns="http://www.w3.org/2000/svg">
<path fill-rule="evenodd" clip-rule="evenodd" d="M14.398 3C14.2384 3 14.0852 3.06342 13.9724 3.17632L8.06457 9.0841L7.78079 10.2192L8.91592 9.93544L14.8237 4.02766C14.9366 3.91477 15 3.76165 15 3.60199C15 3.44233 14.9366 3.28921 14.8237 3.17632C14.7108 3.06342 14.5577 3 14.398 3ZM12.9117 2.11566C13.3059 1.72146 13.8405 1.5 14.398 1.5C14.9555 1.5 15.4902 1.72146 15.8844 2.11566C16.2786 2.50986 16.5 3.04451 16.5 3.60199C16.5 4.15947 16.2786 4.69412 15.8844 5.08832L9.82968 11.143C9.73356 11.2391 9.61313 11.3073 9.48125 11.3403L6.93192 11.9776C6.67634 12.0415 6.40597 11.9666 6.21969 11.7803C6.0334 11.594 5.95851 11.3237 6.02241 11.0681L6.65974 8.51876C6.69271 8.38689 6.7609 8.26645 6.85702 8.17033L12.9117 2.11566Z" fill="#051B2E"/>
<path fill-rule="evenodd" clip-rule="evenodd" d="M11.4697 3.96967C11.7626 3.67678 12.2374 3.67678 12.5303 3.96967L14.0303 5.46967C14.3232 5.76256 14.3232 6.23744 14.0303 6.53033C13.7374 6.82322 13.2626 6.82322 12.9697 6.53033L11.4697 5.03033C11.1768 4.73744 11.1768 4.26256 11.4697 3.96967Z" fill="#051B2E"/>
<path fill-rule="evenodd" clip-rule="evenodd" d="M9 3C5.68629 3 3 5.68629 3 9C3 12.3137 5.68629 15 9 15C12.3137 15 15 12.3137 15 9V8.625C15 8.21079 15.3358 7.875 15.75 7.875C16.1642 7.875 16.5 8.21079 16.5 8.625V9C16.5 13.1421 13.1421 16.5 9 16.5C4.85786 16.5 1.5 13.1421 1.5 9C1.5 4.85786 4.85786 1.5 9 1.5H9.375C9.78921 1.5 10.125 1.83579 10.125 2.25C10.125 2.66421 9.78921 3 9.375 3H9Z" fill="#051B2E"/>
</svg>
