<svg width="20" height="20" viewBox="0 0 20 20" fill="none" xmlns="http://www.w3.org/2000/svg">
<path fill-rule="evenodd" clip-rule="evenodd" d="M5.83342 3.33317C4.4527 3.33317 3.33341 4.45246 3.33341 5.83317V14.1665C3.33341 15.5472 4.4527 16.6665 5.83342 16.6665H14.1667C15.5475 16.6665 16.6667 15.5472 16.6667 14.1665V10.8332C16.6667 10.3729 17.0398 9.99984 17.5001 9.99984C17.9603 9.99984 18.3334 10.3729 18.3334 10.8332V14.1665C18.3334 16.4677 16.4679 18.3332 14.1667 18.3332H5.83342C3.53223 18.3332 1.66675 16.4677 1.66675 14.1665V5.83317C1.66675 3.53198 3.53223 1.6665 5.83342 1.6665H9.16675C9.62699 1.6665 10.0001 2.0396 10.0001 2.49984C10.0001 2.96007 9.62699 3.33317 9.16675 3.33317H5.83342Z" fill="#004BFF"/>
<path fill-rule="evenodd" clip-rule="evenodd" d="M18.0893 1.91058C18.4148 2.23602 18.4148 2.76366 18.0893 3.08909L10.5893 10.5891C10.2639 10.9145 9.73626 10.9145 9.41083 10.5891C9.08539 10.2637 9.08539 9.73602 9.41083 9.41058L16.9108 1.91058C17.2363 1.58514 17.7639 1.58514 18.0893 1.91058Z" fill="#004BFF"/>
<path fill-rule="evenodd" clip-rule="evenodd" d="M11.6667 2.49984C11.6667 2.0396 12.0398 1.6665 12.5001 1.6665H17.5001C17.9603 1.6665 18.3334 2.0396 18.3334 2.49984V7.49984C18.3334 7.96007 17.9603 8.33317 17.5001 8.33317C17.0398 8.33317 16.6667 7.96007 16.6667 7.49984V3.33317H12.5001C12.0398 3.33317 11.6667 2.96007 11.6667 2.49984Z" fill="#004BFF"/>
</svg>
