<svg width="20" height="24" viewBox="0 0 20 24" fill="none" xmlns="http://www.w3.org/2000/svg">
<path fill-rule="evenodd" clip-rule="evenodd" d="M6.6665 19.4998C6.6665 19.0396 7.0396 18.6665 7.49984 18.6665H12.4998C12.9601 18.6665 13.3332 19.0396 13.3332 19.4998C13.3332 19.9601 12.9601 20.3332 12.4998 20.3332H7.49984C7.0396 20.3332 6.6665 19.9601 6.6665 19.4998Z" fill="#004BFF"/>
<path fill-rule="evenodd" clip-rule="evenodd" d="M6.6665 16.1663C6.6665 15.7061 7.0396 15.333 7.49984 15.333H12.4998C12.9601 15.333 13.3332 15.7061 13.3332 16.1663C13.3332 16.6266 12.9601 16.9997 12.4998 16.9997H7.49984C7.0396 16.9997 6.6665 16.6266 6.6665 16.1663Z" fill="#004BFF"/>
<path fill-rule="evenodd" clip-rule="evenodd" d="M6.6665 12.8333C6.6665 12.3731 7.0396 12 7.49984 12H8.33317C8.79341 12 9.1665 12.3731 9.1665 12.8333C9.1665 13.2936 8.79341 13.6667 8.33317 13.6667H7.49984C7.0396 13.6667 6.6665 13.2936 6.6665 12.8333Z" fill="#004BFF"/>
<path fill-rule="evenodd" clip-rule="evenodd" d="M6.66683 8.66667C5.74635 8.66667 5.00016 9.41286 5.00016 10.3333V20.3333C5.00016 21.2538 5.74635 22 6.66683 22H13.3335C14.254 22 15.0002 21.2538 15.0002 20.3333V12.6904C15.0002 12.4693 14.9124 12.2574 14.7561 12.1011L11.5657 8.91074C11.4094 8.75446 11.1975 8.66667 10.9765 8.66667H6.66683ZM3.3335 10.3333C3.3335 8.49238 4.82588 7 6.66683 7H10.9765C11.6395 7 12.2754 7.26339 12.7442 7.73223L15.9346 10.9226C16.4034 11.3914 16.6668 12.0273 16.6668 12.6904V20.3333C16.6668 22.1743 15.1744 23.6667 13.3335 23.6667H6.66683C4.82588 23.6667 3.3335 22.1743 3.3335 20.3333V10.3333Z" fill="#004BFF"/>
<path fill-rule="evenodd" clip-rule="evenodd" d="M11.6667 7.83301V9.49967C11.6667 10.8804 12.786 11.9997 14.1667 11.9997H15.8333V13.6663H14.1667C11.8655 13.6663 10 11.8009 10 9.49967V7.83301H11.6667Z" fill="#004BFF"/>
</svg>
