<svg width="14" height="14" viewBox="0 0 14 14" fill="none" xmlns="http://www.w3.org/2000/svg">
<path fill-rule="evenodd" clip-rule="evenodd" d="M3.00016 1.66683C2.26378 1.66683 1.66683 2.26378 1.66683 3.00016V11.0002C1.66683 11.7365 2.26378 12.3335 3.00016 12.3335H11.0002C11.7365 12.3335 12.3335 11.7365 12.3335 11.0002V5.25016C12.3335 4.51378 11.7365 3.91683 11.0002 3.91683H7.71374C7.04503 3.91683 6.42057 3.58263 6.04964 3.02623L5.34128 1.9637C5.21764 1.77823 5.00949 1.66683 4.78658 1.66683H3.00016ZM0.333496 3.00016C0.333496 1.5274 1.5274 0.333496 3.00016 0.333496H4.78658C5.45529 0.333496 6.07975 0.667698 6.45069 1.2241L7.15904 2.28663C7.28269 2.4721 7.49084 2.5835 7.71374 2.5835H11.0002C12.4729 2.5835 13.6668 3.7774 13.6668 5.25016V11.0002C13.6668 12.4729 12.4729 13.6668 11.0002 13.6668H3.00016C1.5274 13.6668 0.333496 12.4729 0.333496 11.0002V3.00016Z" fill="#004BFF"/>
</svg>
