<svg width="20" height="20" viewBox="0 0 20 20" fill="none" xmlns="http://www.w3.org/2000/svg">
<path d="M8.63296 14.195L6.74761 16.0803C5.96598 16.862 4.70019 16.862 3.91921 16.0805C3.13809 15.2994 3.13809 14.0334 3.91906 13.2525L7.69043 9.4811C8.4714 8.7001 9.73731 8.7001 10.5183 9.4811C10.7786 9.74145 11.2008 9.74145 11.4611 9.4811C11.7214 9.22076 11.7214 8.79863 11.4611 8.53828C10.1594 7.23659 8.0493 7.23659 6.74761 8.53828L2.97627 12.3096C1.67458 13.6113 1.67458 15.7214 2.97627 17.0231C4.27781 18.3255 6.38807 18.3255 7.69046 17.0231L9.57581 15.1378C9.83616 14.8774 9.83616 14.4553 9.57581 14.1949C9.31547 13.9346 8.89331 13.9346 8.63296 14.195Z" fill="#004BFF"/>
<path d="M17.0228 2.97627C15.7211 1.67458 13.6104 1.67458 12.3087 2.97627L10.0466 5.23829C9.7863 5.49863 9.7863 5.92076 10.0466 6.1811C10.307 6.44145 10.7291 6.44145 10.9895 6.1811L13.2515 3.91909C14.0325 3.13809 15.299 3.13809 16.08 3.91909C16.861 4.70006 16.861 5.96598 16.08 6.74695L11.932 10.895C11.151 11.676 9.88511 11.676 9.10414 10.895C8.8438 10.6347 8.42167 10.6347 8.16132 10.895C7.90098 11.1554 7.90098 11.5775 8.16132 11.8378C9.46302 13.1395 11.5731 13.1395 12.8748 11.8378L17.0228 7.6898C18.3245 6.3881 18.3245 4.27797 17.0228 2.97627Z" fill="#004BFF"/>
</svg>
