<svg width="20" height="20" viewBox="0 0 20 20" fill="none" xmlns="http://www.w3.org/2000/svg">
<path fill-rule="evenodd" clip-rule="evenodd" d="M3.33325 4.99984C3.33325 3.15889 4.82564 1.6665 6.66658 1.6665H13.3333C15.1742 1.6665 16.6666 3.15889 16.6666 4.99984V9.99984C16.6666 10.4601 16.2935 10.8332 15.8333 10.8332C15.373 10.8332 14.9999 10.4601 14.9999 9.99984V4.99984C14.9999 4.07936 14.2537 3.33317 13.3333 3.33317H6.66658C5.74611 3.33317 4.99992 4.07936 4.99992 4.99984V14.9998C4.99992 15.9203 5.74611 16.6665 6.66658 16.6665H8.33325C8.79349 16.6665 9.16658 17.0396 9.16658 17.4998C9.16658 17.9601 8.79349 18.3332 8.33325 18.3332H6.66658C4.82564 18.3332 3.33325 16.8408 3.33325 14.9998V4.99984Z" fill="#004BFF"/>
<path fill-rule="evenodd" clip-rule="evenodd" d="M6.66675 1.6665H6.75934C7.79481 1.6665 8.66486 2.37471 8.91155 3.33317H11.0886C11.3353 2.37471 12.2054 1.6665 13.2408 1.6665H13.3334V3.33317H13.2408C12.934 3.33317 12.6853 3.5819 12.6853 3.88873C12.6853 4.50238 12.1878 4.99984 11.5742 4.99984H8.42601C7.81236 4.99984 7.3149 4.50238 7.3149 3.88873C7.3149 3.5819 7.06617 3.33317 6.75934 3.33317H6.66675V1.6665Z" fill="#004BFF"/>
<path fill-rule="evenodd" clip-rule="evenodd" d="M13.3333 13.3332C12.4129 13.3332 11.6667 14.0794 11.6667 14.9998C11.6667 15.9203 12.4129 16.6665 13.3333 16.6665C14.2538 16.6665 15 15.9203 15 14.9998C15 14.0794 14.2538 13.3332 13.3333 13.3332ZM10 14.9998C10 13.1589 11.4924 11.6665 13.3333 11.6665C15.1743 11.6665 16.6667 13.1589 16.6667 14.9998C16.6667 16.8408 15.1743 18.3332 13.3333 18.3332C11.4924 18.3332 10 16.8408 10 14.9998Z" fill="#004BFF"/>
</svg>
