<svg width="12" height="12" viewBox="0 0 12 12" fill="none" xmlns="http://www.w3.org/2000/svg">
<path fill-rule="evenodd" clip-rule="evenodd" d="M0 5.99998C0 5.63179 0.298477 5.33331 0.666667 5.33331H11.3333C11.7015 5.33331 12 5.63179 12 5.99998C12 6.36817 11.7015 6.66665 11.3333 6.66665H0.666667C0.298477 6.66665 0 6.36817 0 5.99998Z" fill="#051B2E"/>
<path fill-rule="evenodd" clip-rule="evenodd" d="M6.00008 -2.91409e-08C6.36827 -1.30468e-08 6.66675 0.298477 6.66675 0.666667L6.66675 11.3333C6.66675 11.7015 6.36827 12 6.00008 12C5.63189 12 5.33341 11.7015 5.33341 11.3333L5.33341 0.666667C5.33341 0.298477 5.63189 -4.5235e-08 6.00008 -2.91409e-08Z" fill="#051B2E"/>
</svg>
