<svg width="20" height="20" viewBox="0 0 20 20" fill="none" xmlns="http://www.w3.org/2000/svg">
<path fill-rule="evenodd" clip-rule="evenodd" d="M6.66675 1.66663C7.12699 1.66663 7.50008 2.03972 7.50008 2.49996H14.1667C16.4679 2.49996 18.3334 4.36544 18.3334 6.66663V14.1666C18.3334 16.4678 16.4679 18.3333 14.1667 18.3333H5.83342C3.53223 18.3333 1.66675 16.4678 1.66675 14.1666V6.66663C1.66675 4.36544 3.53223 2.49996 5.83342 2.49996C5.83342 2.03972 6.20651 1.66663 6.66675 1.66663ZM5.83342 4.16663C4.4527 4.16663 3.33341 5.28591 3.33341 6.66663V14.1666C3.33341 15.5473 4.4527 16.6666 5.83342 16.6666H14.1667C15.5475 16.6666 16.6667 15.5473 16.6667 14.1666V6.66663C16.6667 5.28591 15.5475 4.16663 14.1667 4.16663H7.50008V4.99996C7.50008 5.4602 7.12699 5.83329 6.66675 5.83329C6.20651 5.83329 5.83342 5.4602 5.83342 4.99996V4.16663Z" fill="#C20505"/>
<path fill-rule="evenodd" clip-rule="evenodd" d="M13.3333 1.66663C13.7936 1.66663 14.1667 2.03972 14.1667 2.49996V4.99996C14.1667 5.4602 13.7936 5.83329 13.3333 5.83329C12.8731 5.83329 12.5 5.4602 12.5 4.99996V2.49996C12.5 2.03972 12.8731 1.66663 13.3333 1.66663Z" fill="#C20505"/>
<path fill-rule="evenodd" clip-rule="evenodd" d="M13.0698 8.55876C13.4056 8.87354 13.4226 9.4009 13.1078 9.73666L9.98281 13.07C9.68428 13.3884 9.1906 13.4225 8.8511 13.1482L6.9761 11.6331C6.61813 11.3438 6.56244 10.8191 6.8517 10.4611C7.14097 10.1032 7.66566 10.0475 8.02363 10.3367L9.29644 11.3653L11.8919 8.59676C12.2067 8.261 12.7341 8.24399 13.0698 8.55876Z" fill="#C20505"/>
</svg>
