<svg width="20" height="20" viewBox="0 0 20 20" fill="none" xmlns="http://www.w3.org/2000/svg">
<path fill-rule="evenodd" clip-rule="evenodd" d="M1.66675 5.83317C1.66675 3.53198 3.53223 1.6665 5.83342 1.6665H14.1667C16.4679 1.6665 18.3334 3.53198 18.3334 5.83317V14.1665C18.3334 16.4677 16.4679 18.3332 14.1667 18.3332H5.83342C3.53223 18.3332 1.66675 16.4677 1.66675 14.1665V5.83317ZM5.83342 3.33317C4.4527 3.33317 3.33341 4.45246 3.33341 5.83317V14.1665C3.33341 15.5472 4.4527 16.6665 5.83342 16.6665H14.1667C15.5475 16.6665 16.6667 15.5472 16.6667 14.1665V5.83317C16.6667 4.45246 15.5475 3.33317 14.1667 3.33317H5.83342Z" fill="#004BFF"/>
<path fill-rule="evenodd" clip-rule="evenodd" d="M8.92885 5.99706C9.41467 5.18978 10.585 5.18978 11.0709 5.99706L11.9033 7.38031L13.4761 7.74457C14.394 7.95716 14.7557 9.07024 14.138 9.78175L13.0797 11.0009L13.2193 12.6093C13.3008 13.548 12.3539 14.2359 11.4864 13.8683L9.99986 13.2386L8.51334 13.8683C7.64579 14.2359 6.69894 13.548 6.78041 12.6093L6.91999 11.0009L5.86168 9.78175C5.24405 9.07025 5.60571 7.95716 6.5236 7.74457L8.0964 7.38031L8.92885 5.99706ZM9.99986 7.44967L9.43339 8.39095C9.25886 8.68096 8.97417 8.8878 8.64442 8.96417L7.57416 9.21204L8.29432 10.0417C8.51621 10.2973 8.62495 10.6319 8.59568 10.9692L8.50069 12.0636L9.51225 11.6351C9.82392 11.503 10.1758 11.503 10.4875 11.6351L11.499 12.0636L11.404 10.9692C11.3748 10.6319 11.4835 10.2973 11.7054 10.0417L12.4256 9.21204L11.3553 8.96417C11.0256 8.8878 10.7409 8.68096 10.5663 8.39095L9.99986 7.44967Z" fill="#004BFF"/>
</svg>
