<svg width="20" height="20" viewBox="0 0 20 20" fill="none" xmlns="http://www.w3.org/2000/svg">
<path d="M12.4685 7.71718C12.8138 7.71718 13.0935 7.43717 13.0935 7.09217C13.0935 6.74685 12.8138 6.46716 12.4685 6.46716C12.1232 6.46716 11.8435 6.74685 11.8435 7.09217C11.8435 7.43717 12.1232 7.71718 12.4685 7.71718Z" fill="#004BFF"/>
<path d="M13.7186 9.43616C11.3578 9.43616 9.43726 11.3567 9.43726 13.7175C9.43726 16.0782 11.3578 17.9988 13.7186 17.9988C16.0793 17.9988 17.9999 16.0782 17.9999 13.7175C17.9999 11.3567 16.0793 9.43616 13.7186 9.43616ZM13.7186 16.7487C12.0471 16.7487 10.6873 15.3889 10.6873 13.7175C10.6873 12.046 12.0471 10.6862 13.7186 10.6862C15.39 10.6862 16.7498 12.046 16.7498 13.7175C16.7498 15.3889 15.39 16.7487 13.7186 16.7487Z" fill="#004BFF"/>
<path d="M7.53101 5.43738C7.1857 5.43738 6.90601 5.71707 6.90601 6.06238C6.90601 6.4077 7.1857 6.68739 7.53101 6.68739C7.87633 6.68739 8.15602 6.4077 8.15602 6.06238C8.15602 5.71707 7.87633 5.43738 7.53101 5.43738Z" fill="#004BFF"/>
<path d="M12.4685 5.4673C12.8138 5.4673 13.0935 5.1873 13.0935 4.84229C13.0935 4.49698 12.8138 4.21729 12.4685 4.21729C12.1232 4.21729 11.8435 4.49698 11.8435 4.84229C11.8435 5.1873 12.1232 5.4673 12.4685 5.4673Z" fill="#004BFF"/>
<path d="M14.8745 13.0923H14.3433V12.2798C14.3433 11.9346 14.0635 11.6548 13.7183 11.6548C13.3731 11.6548 13.0933 11.9346 13.0933 12.2798V13.7173C13.0933 14.0625 13.3731 14.3423 13.7183 14.3423H14.8745C15.2197 14.3423 15.4995 14.0625 15.4995 13.7173C15.4995 13.3721 15.2197 13.0923 14.8745 13.0923Z" fill="#004BFF"/>
<path d="M7.53101 7.68726C7.1857 7.68726 6.90601 7.96695 6.90601 8.31226C6.90601 8.65758 7.1857 8.93727 7.53101 8.93727C7.87633 8.93727 8.15602 8.65758 8.15602 8.31226C8.15602 7.96695 7.87633 7.68726 7.53101 7.68726Z" fill="#004BFF"/>
<path d="M7.53101 14.4686C7.1857 14.4686 6.90601 14.7483 6.90601 15.0936C6.90601 15.4386 7.1857 15.7186 7.53101 15.7186C7.87633 15.7186 8.15602 15.4386 8.15602 15.0936C8.15602 14.7483 7.87633 14.4686 7.53101 14.4686Z" fill="#004BFF"/>
<path d="M16.1149 2.88692L13.4574 2.12101C13.4499 2.11888 13.4425 2.11685 13.435 2.11501C12.7996 1.95716 12.1291 1.96263 11.4963 2.13085L8.2531 2.99296C7.80369 3.11243 7.33659 3.08765 6.90237 2.92124C6.89455 2.91824 6.88674 2.91539 6.87884 2.91277L4.54762 2.12498C3.97377 1.90444 3.32939 1.97863 2.82045 2.32489C2.30669 2.6743 2 3.2539 2 3.87522V14.794C2 15.9451 2.7802 16.9428 3.8973 17.2203L6.57515 17.8855C6.8824 17.9618 7.19796 18 7.51359 18C7.827 18 8.14044 17.9624 8.44557 17.8872L8.59911 17.8705C8.94223 17.8331 9.19008 17.5246 9.15267 17.1814C9.11524 16.8383 8.80676 16.5904 8.46357 16.6278L8.26688 16.6493C8.23679 16.6525 8.20698 16.658 8.17769 16.6656C7.75263 16.776 7.30272 16.7783 6.87659 16.6724L4.19871 16.0072C3.64011 15.8684 3.25001 15.3696 3.25001 14.7941V3.87522C3.25001 3.665 3.3497 3.47665 3.52349 3.35843C3.6973 3.24021 3.90908 3.21677 4.10455 3.2939C4.11431 3.29774 4.12412 3.30134 4.13406 3.30471L6.46736 4.09316C7.14515 4.34997 7.87335 4.38732 8.57426 4.20103L11.8174 3.33893C12.2435 3.22565 12.6947 3.22108 13.123 3.32552L15.7791 4.09103C15.7866 4.09316 15.794 4.09519 15.8015 4.09703C16.3601 4.23578 16.7502 4.73466 16.7502 5.3102V8.5928C16.7502 8.93799 17.03 9.21781 17.3752 9.21781C17.7204 9.21781 18.0002 8.93799 18.0002 8.5928V5.3102C18.0002 4.16328 17.2256 3.16861 16.1149 2.88692Z" fill="#004BFF"/>
<path d="M7.53101 9.96875C7.1857 9.96875 6.90601 10.2484 6.90601 10.5938C6.90601 10.9391 7.1857 11.2188 7.53101 11.2188C7.87633 11.2188 8.15602 10.9391 8.15602 10.5938C8.15602 10.2484 7.87633 9.96875 7.53101 9.96875Z" fill="#004BFF"/>
<path d="M7.53101 12.2186C7.1857 12.2186 6.90601 12.4983 6.90601 12.8436C6.90601 13.189 7.1857 13.4686 7.53101 13.4686C7.87633 13.4686 8.15602 13.189 8.15602 12.8436C8.15602 12.4983 7.87633 12.2186 7.53101 12.2186Z" fill="#004BFF"/>
</svg>
