<svg width="18" height="18" viewBox="0 0 18 18" fill="none" xmlns="http://www.w3.org/2000/svg">
<path fill-rule="evenodd" clip-rule="evenodd" d="M3 3.75C3 3.33579 3.33579 3 3.75 3H14.25C14.6642 3 15 3.33579 15 3.75C15 4.16421 14.6642 4.5 14.25 4.5H3.75C3.33579 4.5 3 4.16421 3 3.75Z" fill="#C20505"/>
<path fill-rule="evenodd" clip-rule="evenodd" d="M6.58333 2.5C6.58333 1.94771 7.03105 1.5 7.58333 1.5L10.4167 1.5C10.969 1.5 11.4167 1.94772 11.4167 2.5C11.4167 2.77614 11.6405 3 11.9167 3H12V4.5H11.9167C10.9847 4.5 10.2017 3.86261 9.97968 3L8.02032 3C7.7983 3.86261 7.01525 4.5 6.08333 4.5H6V3H6.08333C6.35948 3 6.58333 2.77614 6.58333 2.5Z" fill="#C20505"/>
<path fill-rule="evenodd" clip-rule="evenodd" d="M4.43776 6.00263C4.85054 5.96823 5.21305 6.27497 5.24745 6.68776L5.82552 13.6246C5.89031 14.402 6.54021 15 7.32034 15H10.6797C11.4599 15 12.1098 14.402 12.1746 13.6246L12.7526 6.68776C12.787 6.27497 13.1495 5.96823 13.5623 6.00263C13.9751 6.03703 14.2818 6.39954 14.2474 6.81233L13.6694 13.7492C13.5398 15.3041 12.24 16.5 10.6797 16.5H7.32034C5.76007 16.5 4.46028 15.3041 4.3307 13.7492L3.75263 6.81233C3.71823 6.39954 4.02497 6.03703 4.43776 6.00263Z" fill="#C20505"/>
</svg>
