<svg width="20" height="20" viewBox="0 0 20 20" fill="none" xmlns="http://www.w3.org/2000/svg">
<path fill-rule="evenodd" clip-rule="evenodd" d="M1.66675 6.66683C1.66675 4.82588 3.15913 3.3335 5.00008 3.3335H10.8334C12.6744 3.3335 14.1667 4.82588 14.1667 6.66683V13.3335C14.1667 15.1744 12.6744 16.6668 10.8334 16.6668H5.00008C3.15913 16.6668 1.66675 15.1744 1.66675 13.3335V6.66683ZM5.00008 5.00016C4.07961 5.00016 3.33341 5.74635 3.33341 6.66683V13.3335C3.33341 14.254 4.07961 15.0002 5.00008 15.0002H10.8334C11.7539 15.0002 12.5001 14.254 12.5001 13.3335V6.66683C12.5001 5.74635 11.7539 5.00016 10.8334 5.00016H5.00008Z" fill="#004BFF"/>
<path fill-rule="evenodd" clip-rule="evenodd" d="M15.5517 5.63229C16.6243 4.667 18.3333 5.42816 18.3333 6.87111V13.1288C18.3333 14.5718 16.6243 15.3329 15.5517 14.3677L13.0517 12.1177C12.7005 11.8016 12.5 11.3513 12.5 10.8788V9.12111C12.5 8.64863 12.7005 8.19836 13.0517 7.88229L15.5517 5.63229ZM16.6667 6.87111L14.1667 9.12111L14.1667 10.8788L16.6667 13.1288L16.6667 6.87111Z" fill="#004BFF"/>
</svg>
