<svg width="18" height="18" viewBox="0 0 18 18" fill="none" xmlns="http://www.w3.org/2000/svg">
<path fill-rule="evenodd" clip-rule="evenodd" d="M5.25 3C4.00736 3 3 4.00736 3 5.25V12.75C3 13.9926 4.00736 15 5.25 15H12.75C13.9926 15 15 13.9926 15 12.75V9.75C15 9.33579 15.3358 9 15.75 9C16.1642 9 16.5 9.33579 16.5 9.75V12.75C16.5 14.8211 14.8211 16.5 12.75 16.5H5.25C3.17893 16.5 1.5 14.8211 1.5 12.75V5.25C1.5 3.17893 3.17893 1.5 5.25 1.5H8.25C8.66421 1.5 9 1.83579 9 2.25C9 2.66421 8.66421 3 8.25 3H5.25Z" fill="#295D7B"/>
<path fill-rule="evenodd" clip-rule="evenodd" d="M16.2803 1.71967C16.5732 2.01256 16.5732 2.48744 16.2803 2.78033L9.53033 9.53033C9.23744 9.82322 8.76256 9.82322 8.46967 9.53033C8.17678 9.23744 8.17678 8.76256 8.46967 8.46967L15.2197 1.71967C15.5126 1.42678 15.9874 1.42678 16.2803 1.71967Z" fill="#295D7B"/>
<path fill-rule="evenodd" clip-rule="evenodd" d="M10.5 2.25C10.5 1.83579 10.8358 1.5 11.25 1.5H15.75C16.1642 1.5 16.5 1.83579 16.5 2.25V6.75C16.5 7.16421 16.1642 7.5 15.75 7.5C15.3358 7.5 15 7.16421 15 6.75V3H11.25C10.8358 3 10.5 2.66421 10.5 2.25Z" fill="#295D7B"/>
</svg>
