<svg width="16" height="16" viewBox="0 0 16 16" fill="none" xmlns="http://www.w3.org/2000/svg">
<path fill-rule="evenodd" clip-rule="evenodd" d="M5.3335 1.3335C5.70169 1.3335 6.00016 1.63197 6.00016 2.00016H11.3335C13.1744 2.00016 14.6668 3.49255 14.6668 5.3335V11.3335C14.6668 13.1744 13.1744 14.6668 11.3335 14.6668H4.66683C2.82588 14.6668 1.3335 13.1744 1.3335 11.3335V5.3335C1.3335 3.49255 2.82588 2.00016 4.66683 2.00016C4.66683 1.63197 4.96531 1.3335 5.3335 1.3335ZM4.66683 3.3335C3.56226 3.3335 2.66683 4.22893 2.66683 5.3335V11.3335C2.66683 12.4381 3.56226 13.3335 4.66683 13.3335H11.3335C12.4381 13.3335 13.3335 12.4381 13.3335 11.3335V5.3335C13.3335 4.22893 12.4381 3.3335 11.3335 3.3335H6.00016V4.00016C6.00016 4.36835 5.70169 4.66683 5.3335 4.66683C4.96531 4.66683 4.66683 4.36835 4.66683 4.00016V3.3335Z" fill="#004BFF"/>
<path fill-rule="evenodd" clip-rule="evenodd" d="M10.6667 1.3335C11.0349 1.3335 11.3333 1.63197 11.3333 2.00016V4.00016C11.3333 4.36835 11.0349 4.66683 10.6667 4.66683C10.2985 4.66683 10 4.36835 10 4.00016V2.00016C10 1.63197 10.2985 1.3335 10.6667 1.3335Z" fill="#004BFF"/>
<path fill-rule="evenodd" clip-rule="evenodd" d="M10.4561 6.84681C10.7248 7.09863 10.7384 7.52053 10.4865 7.78913L7.98654 10.4558C7.74771 10.7106 7.35277 10.7378 7.08117 10.5184L5.58117 9.30625C5.2948 9.07483 5.25024 8.65508 5.48166 8.3687C5.71307 8.08233 6.13282 8.03777 6.4192 8.26919L7.43745 9.09202L9.51383 6.87721C9.76565 6.6086 10.1875 6.59499 10.4561 6.84681Z" fill="#004BFF"/>
</svg>
