<svg width="16" height="16" viewBox="0 0 16 16" fill="none" xmlns="http://www.w3.org/2000/svg">
<path fill-rule="evenodd" clip-rule="evenodd" d="M3.28612 3.28612C4.49182 2.08042 6.1594 1.3335 8.00016 1.3335C9.84093 1.3335 11.5085 2.08042 12.7142 3.28612C13.9199 4.49182 14.6668 6.1594 14.6668 8.00016C14.6668 9.84093 13.9199 11.5085 12.7142 12.7142C11.5085 13.9199 9.84093 14.6668 8.00016 14.6668C6.1594 14.6668 4.49182 13.9199 3.28612 12.7142C2.08042 11.5085 1.3335 9.84093 1.3335 8.00016C1.3335 6.1594 2.08042 4.49182 3.28612 3.28612ZM8.00016 2.66683C6.52722 2.66683 5.1948 3.26305 4.22893 4.22893C3.26305 5.1948 2.66683 6.52722 2.66683 8.00016C2.66683 9.47311 3.26305 10.8055 4.22893 11.7714C5.1948 12.7373 6.52722 13.3335 8.00016 13.3335C9.47311 13.3335 10.8055 12.7373 11.7714 11.7714C12.7373 10.8055 13.3335 9.47311 13.3335 8.00016C13.3335 6.52722 12.7373 5.1948 11.7714 4.22893C10.8055 3.26305 9.47311 2.66683 8.00016 2.66683Z" fill="#004BFF"/>
<path fill-rule="evenodd" clip-rule="evenodd" d="M8.00016 4.6665C8.36835 4.6665 8.66683 4.96498 8.66683 5.33317V7.99984C8.66683 8.36803 8.36835 8.6665 8.00016 8.6665C7.63197 8.6665 7.3335 8.36803 7.3335 7.99984L7.3335 5.33317C7.3335 4.96498 7.63197 4.6665 8.00016 4.6665Z" fill="#004BFF"/>
<path fill-rule="evenodd" clip-rule="evenodd" d="M7.52876 7.52876C7.78911 7.26841 8.21122 7.26841 8.47157 7.52876L9.8049 8.86209C10.0652 9.12244 10.0652 9.54455 9.8049 9.8049C9.54455 10.0652 9.12244 10.0652 8.86209 9.8049L7.52876 8.47157C7.26841 8.21122 7.26841 7.78911 7.52876 7.52876Z" fill="#004BFF"/>
</svg>
