<svg width="16" height="16" viewBox="0 0 16 16" fill="none" xmlns="http://www.w3.org/2000/svg">
<path fill-rule="evenodd" clip-rule="evenodd" d="M7.99984 2.66683C6.89527 2.66683 5.99984 3.56226 5.99984 4.66683C5.99984 5.7714 6.89527 6.66683 7.99984 6.66683C9.10441 6.66683 9.99984 5.7714 9.99984 4.66683C9.99984 3.56226 9.10441 2.66683 7.99984 2.66683ZM4.6665 4.66683C4.6665 2.82588 6.15889 1.3335 7.99984 1.3335C9.84079 1.3335 11.3332 2.82588 11.3332 4.66683C11.3332 6.50778 9.84079 8.00016 7.99984 8.00016C6.15889 8.00016 4.6665 6.50778 4.6665 4.66683Z" fill="#004BFF"/>
<path fill-rule="evenodd" clip-rule="evenodd" d="M8.00011 13.3332C6.04754 13.3332 4.88986 12.7424 4.22369 11.9804C4.02071 11.7482 3.96781 11.5441 3.97395 11.3766C3.98049 11.1979 4.05773 10.9911 4.23159 10.7793C4.5887 10.3441 5.26766 9.99984 6.00011 9.99984H10.0001C10.7326 9.99984 11.4115 10.3441 11.7686 10.7793C11.9425 10.9911 12.0197 11.1979 12.0263 11.3766C12.0324 11.5441 11.9795 11.7482 11.7765 11.9804C11.1104 12.7424 9.95268 13.3332 8.00011 13.3332ZM3.21983 12.8579C4.20154 13.9809 5.76895 14.6665 8.00011 14.6665C10.2313 14.6665 11.7987 13.9809 12.7804 12.8579C13.1832 12.3971 13.3785 11.8689 13.3587 11.3278C13.3393 10.7979 13.1164 10.3198 12.7993 9.93347C12.1746 9.17218 11.1086 8.6665 10.0001 8.6665H6.00011C4.89161 8.6665 3.8256 9.17218 3.20087 9.93347C2.88381 10.3198 2.66092 10.7979 2.64151 11.3278C2.62169 11.8689 2.81701 12.3971 3.21983 12.8579Z" fill="#004BFF"/>
</svg>
